<svg xmlns="http://www.w3.org/2000/svg" version="1.1" xmlns:xlink="http://www.w3.org/1999/xlink" width="200" height="200"><svg xmlns="http://www.w3.org/2000/svg" version="1.1" xmlns:xlink="http://www.w3.org/1999/xlink" viewBox="0 0 200 200"><rect width="200" height="200" fill="url('#gradient')"></rect><defs><linearGradient id="SvgjsLinearGradient1001" gradientTransform="rotate(45 0.5 0.5)"><stop offset="0%" stop-color="#6667ba"></stop><stop offset="100%" stop-color="#604b99"></stop></linearGradient></defs><g><g fill="#589f9c" transform="matrix(2.2538517975055026,0,0,2.2538517975055026,10.06896914837995,116.68084657323422)" stroke="#5bcad4" stroke-width="0.2"><path d="M9.98 0L9.15-2.66L4.45-2.66L3.63 0L-0.03 0L5.19-14.22L8.41-14.22L13.66 0L9.98 0ZM6.80-10.23L5.27-5.30L8.33-5.30L6.80-10.23ZM18.02-10.57L18.02 0L14.72 0L14.72-10.57L18.02-10.57ZM14.52-13.29L14.52-13.29Q14.52-13.99 15.03-14.44Q15.54-14.89 16.35-14.89Q17.16-14.89 17.67-14.44Q18.17-13.99 18.17-13.29Q18.17-12.59 17.67-12.14Q17.16-11.69 16.35-11.69Q15.54-11.69 15.03-12.14Q14.52-12.59 14.52-13.29ZM27.87-14.22L30.69-3.87L33.53-14.22L37.35-14.22L32.57 0L28.82 0L24.07-14.22L27.87-14.22ZM37.38-4.82L37.37-5.38Q37.37-6.96 37.99-8.20Q38.60-9.43 39.76-10.10Q40.91-10.76 42.46-10.76L42.46-10.76Q44.83-10.76 46.20-9.29Q47.57-7.82 47.57-5.29L47.57-5.29L47.57-5.18Q47.57-2.71 46.20-1.25Q44.82 0.20 42.48 0.20L42.48 0.20Q40.22 0.20 38.86-1.16Q37.49-2.51 37.38-4.82L37.38-4.82ZM40.67-5.77L40.66-5.18Q40.66-3.71 41.12-3.03Q41.58-2.34 42.48-2.34L42.48-2.34Q44.24-2.34 44.28-5.05L44.28-5.05L44.28-5.38Q44.28-8.22 42.46-8.22L42.46-8.22Q40.81-8.22 40.67-5.77L40.67-5.77ZM53.49-2.34L53.49-2.34Q54.18-2.34 54.56-2.72Q54.94-3.10 54.93-3.77L54.93-3.77L58.02-3.77Q58.02-2.03 56.77-0.92Q55.53 0.20 53.56 0.20L53.56 0.20Q51.26 0.20 49.93-1.25Q48.60-2.70 48.60-5.25L48.60-5.25L48.60-5.39Q48.60-6.99 49.19-8.22Q49.79-9.44 50.90-10.10Q52.01-10.76 53.54-10.76L53.54-10.76Q55.60-10.76 56.81-9.62Q58.02-8.48 58.02-6.52L58.02-6.52L54.93-6.52Q54.93-7.34 54.53-7.78Q54.13-8.22 53.46-8.22L53.46-8.22Q52.18-8.22 51.96-6.59L51.96-6.59Q51.89-6.07 51.89-5.17L51.89-5.17Q51.89-3.57 52.28-2.96Q52.66-2.34 53.49-2.34ZM68.65 0L65.36 0Q65.19-0.32 65.05-0.95L65.05-0.95Q64.14 0.20 62.51 0.20L62.51 0.20Q61.02 0.20 59.97-0.71Q58.93-1.61 58.93-2.98L58.93-2.98Q58.93-4.70 60.20-5.58Q61.46-6.46 63.89-6.46L63.89-6.46L64.90-6.46L64.90-7.01Q64.90-8.47 63.64-8.47L63.64-8.47Q62.47-8.47 62.47-7.31L62.47-7.31L59.18-7.31Q59.18-8.85 60.48-9.80Q61.79-10.76 63.81-10.76Q65.83-10.76 67.00-9.78Q68.17-8.79 68.20-7.07L68.20-7.07L68.20-2.39Q68.22-0.94 68.65-0.17L68.65-0.17L68.65 0ZM63.30-2.15L63.30-2.15Q63.92-2.15 64.32-2.41Q64.73-2.68 64.90-3.01L64.90-3.01L64.90-4.70L63.95-4.70Q62.23-4.70 62.23-3.15L62.23-3.15Q62.23-2.71 62.53-2.43Q62.83-2.15 63.30-2.15ZM79.83-5.36L79.83-5.20Q79.83-2.60 78.76-1.20Q77.69 0.20 75.73 0.20L75.73 0.20Q74.12 0.20 73.13-1.08L73.13-1.08L73.00 0L70.05 0L70.05-15L73.34-15L73.34-9.72Q74.26-10.76 75.71-10.76L75.71-10.76Q77.69-10.76 78.76-9.35Q79.83-7.93 79.83-5.36L79.83-5.36ZM76.53-5.40L76.53-5.40Q76.53-6.92 76.13-7.57Q75.72-8.22 74.88-8.22L74.88-8.22Q73.77-8.22 73.34-7.37L73.34-7.37L73.34-3.17Q73.76-2.33 74.90-2.33L74.90-2.33Q76.06-2.33 76.38-3.47L76.38-3.47Q76.53-4.02 76.53-5.40Z"></path></g></g></svg><style>@media (prefers-color-scheme: light) { :root { filter: none; } }
@media (prefers-color-scheme: dark) { :root { filter: none; } }
</style></svg>